<svg width="1026" height="1495" viewBox="0 0 1026 1495" fill="none" xmlns="http://www.w3.org/2000/svg">
<path fill-rule="evenodd" clip-rule="evenodd" d="M456.544 1483.52C370.5 1458.65 312.97 1348.93 241.161 1272.95C167.492 1195 27.4526 1169.33 31.0687 1033.34C35.2364 876.593 137.833 870.016 157.5 716C182.509 520.146 54.3614 316.893 141.633 167.486C219.77 33.717 353.567 294.304 456.544 381.336C507.881 424.725 540.053 498.708 589.768 546.233C645.199 599.221 713.7 606.763 762.209 673.534C849.35 793.48 982.955 902.36 977.943 1080.54C973.218 1248.49 840.143 1341.11 741.28 1417.52C653.609 1485.28 553.224 1511.47 456.544 1483.52Z" fill="#6C63FF"/>
<path fill-rule="evenodd" clip-rule="evenodd" d="M697.271 309.836C741.717 343.984 733.221 413.882 762.985 461.78C790.654 506.307 858.415 524.497 863.388 577.163C868.369 629.905 823.014 673.877 786.651 712.41C753.792 747.23 711.26 766.353 667.482 784.761C618.732 805.26 570.147 834.203 518.505 825.164C462.768 815.409 405.855 785.271 379.846 734.42C354.577 685.017 383.704 626.556 388.361 570.72C392.655 519.23 385.344 467.909 406.025 420.492C431.309 362.519 459.572 295.727 517.976 273.538C576.885 251.156 647.621 271.69 697.271 309.836Z" stroke="#393A73"/>
<path fill-rule="evenodd" clip-rule="evenodd" d="M697.271 325.299C741.717 359.446 733.221 429.344 762.985 477.243C790.654 521.77 858.415 539.959 863.388 592.625C868.369 645.367 823.014 689.34 786.651 727.873C753.792 762.693 711.26 781.815 667.482 800.224C618.732 820.723 570.147 849.665 518.505 840.627C462.768 830.872 405.855 800.733 379.846 749.882C354.577 700.479 383.704 642.019 388.361 586.183C392.655 534.692 385.344 483.371 406.025 435.954C431.309 377.981 459.572 311.19 517.976 289C576.885 266.618 647.621 287.152 697.271 325.299Z" stroke="#393A73"/>
<path fill-rule="evenodd" clip-rule="evenodd" d="M697.271 340.761C741.717 374.909 733.221 444.807 762.985 492.705C790.654 537.233 858.415 555.422 863.388 608.088C868.369 660.83 823.014 704.803 786.651 743.336C753.792 778.156 711.26 797.278 667.482 815.686C618.732 836.186 570.147 865.128 518.505 856.09C462.768 846.334 405.855 816.196 379.846 765.345C354.577 715.942 383.704 657.482 388.361 601.646C392.655 550.155 385.344 498.834 406.025 451.417C431.309 393.444 459.572 326.653 517.976 304.463C576.885 282.081 647.621 302.615 697.271 340.761Z" stroke="#393A73"/>
<path fill-rule="evenodd" clip-rule="evenodd" d="M503.463 1354.52C417.419 1329.65 359.889 1219.93 288.08 1143.95C214.411 1066 74.3718 1040.33 77.9878 904.336C82.1556 747.593 282.979 750.147 302.646 596.131C327.655 400.277 101.281 187.893 188.552 38.4862C266.689 -95.283 400.486 165.304 503.463 252.336C554.8 295.725 586.972 369.708 636.687 417.233C692.119 470.221 760.619 477.763 809.128 544.534C896.269 664.48 1029.87 773.36 1024.86 951.542C1020.14 1119.49 887.062 1212.11 788.199 1288.52C700.528 1356.28 600.143 1382.47 503.463 1354.52Z" stroke="#FD8061"/>
<path fill-rule="evenodd" clip-rule="evenodd" d="M441.613 1354.52C355.57 1329.65 298.039 1219.93 226.23 1143.95C152.562 1066 12.5219 1040.33 16.138 904.336C20.3057 747.593 221.129 750.147 240.796 596.131C265.806 400.277 39.4307 187.893 126.702 38.4862C204.839 -95.283 338.636 165.304 441.613 252.336C492.951 295.725 525.122 369.708 574.838 417.233C630.269 470.221 698.769 477.763 747.278 544.534C834.419 664.48 968.025 773.36 963.012 951.542C958.288 1119.49 825.213 1212.11 726.349 1288.52C638.679 1356.28 538.293 1382.47 441.613 1354.52Z" stroke="#FD8061"/>
<path fill-rule="evenodd" clip-rule="evenodd" d="M488.001 1354.52C401.957 1329.65 344.427 1219.93 272.618 1143.95C198.949 1066 58.9096 1040.33 62.5257 904.336C66.6934 747.593 267.517 750.147 287.184 596.131C312.193 400.277 85.8184 187.893 173.09 38.4862C251.227 -95.283 385.024 165.304 488.001 252.336C539.338 295.725 571.51 369.708 621.225 417.233C676.656 470.221 745.157 477.763 793.666 544.534C880.807 664.48 1014.41 773.36 1009.4 951.542C1004.68 1119.49 871.6 1212.11 772.737 1288.52C685.066 1356.28 584.681 1382.47 488.001 1354.52Z" stroke="#FD8061"/>
<path fill-rule="evenodd" clip-rule="evenodd" d="M426.15 1354.52C340.107 1329.65 282.576 1219.93 210.767 1143.95C137.099 1066 -2.9407 1040.33 0.675354 904.336C4.84307 747.593 205.666 750.147 225.333 596.131C250.343 400.277 23.9681 187.893 111.24 38.4862C189.377 -95.283 323.174 165.304 426.15 252.336C477.488 295.725 509.66 369.708 559.375 417.233C614.806 470.221 683.307 477.763 731.815 544.534C818.957 664.48 952.562 773.36 947.55 951.542C942.825 1119.49 809.75 1212.11 710.886 1288.52C623.216 1356.28 522.831 1382.47 426.15 1354.52Z" stroke="#FD8061"/>
<path fill-rule="evenodd" clip-rule="evenodd" d="M472.538 1354.52C386.495 1329.65 328.964 1219.93 257.155 1143.95C183.487 1066 43.447 1040.33 47.063 904.336C51.2308 747.593 252.054 750.147 271.721 596.131C296.731 400.277 70.3558 187.893 157.627 38.4862C235.764 -95.283 369.562 165.304 472.538 252.336C523.876 295.725 556.047 369.708 605.763 417.233C661.194 470.221 729.694 477.763 778.203 544.534C865.344 664.48 998.95 773.36 993.937 951.542C989.213 1119.49 856.138 1212.11 757.274 1288.52C669.604 1356.28 569.218 1382.47 472.538 1354.52Z" stroke="#FD8061"/>
<path fill-rule="evenodd" clip-rule="evenodd" d="M457.075 1354.52C371.032 1329.65 313.501 1219.93 241.692 1143.95C168.024 1066 27.9843 1040.33 31.6004 904.336C35.7681 747.593 236.591 750.147 256.258 596.131C281.268 400.277 54.8931 187.893 142.165 38.4862C220.302 -95.283 354.099 165.304 457.075 252.336C508.413 295.725 540.585 369.708 590.3 417.233C645.731 470.221 714.232 477.763 762.74 544.534C849.882 664.48 983.487 773.36 978.475 951.542C973.75 1119.49 840.675 1212.11 741.811 1288.52C654.141 1356.28 553.756 1382.47 457.075 1354.52Z" stroke="#FD8061"/>
<path fill-rule="evenodd" clip-rule="evenodd" d="M697.27 294.373C741.716 328.521 733.22 398.419 762.984 446.317C790.653 490.844 858.414 509.034 863.387 561.7C868.368 614.442 823.013 658.415 786.65 696.948C753.791 731.768 711.259 750.89 667.481 769.298C618.731 789.798 570.146 818.74 518.504 809.701C462.767 799.946 405.854 769.808 379.845 718.957C354.576 669.554 383.703 611.093 388.36 555.257C392.654 503.767 385.343 452.446 406.024 405.029C431.308 347.056 459.571 280.265 517.975 258.075C576.884 235.693 647.62 256.227 697.27 294.373Z" fill="#FD8061"/>
</svg>
